<svg width="14" height="22" viewBox="0 0 14 22" fill="none" xmlns="http://www.w3.org/2000/svg">
<path d="M5.568 21.632V20.12C4.752 20.024 3.928 19.832 3.096 19.544C2.28 19.24 1.504 18.824 0.768 18.296L2.304 15.584C2.768 15.936 3.288 16.24 3.864 16.496C4.456 16.736 5.024 16.912 5.568 17.024V12.296C4.928 12.024 4.312 11.696 3.72 11.312C3.128 10.912 2.64 10.4 2.256 9.776C1.872 9.152 1.68 8.368 1.68 7.424C1.68 5.984 2.12 4.816 3 3.92C3.896 3.024 5.072 2.48 6.528 2.288V0.704H8.544V2.312C9.552 2.408 10.4 2.608 11.088 2.912C11.792 3.216 12.44 3.56 13.032 3.944L11.712 6.608C11.184 6.32 10.648 6.072 10.104 5.864C9.576 5.64 9.056 5.488 8.544 5.408V9.8L8.664 9.848C9.352 10.104 10.016 10.432 10.656 10.832C11.296 11.216 11.824 11.752 12.24 12.44C12.656 13.112 12.864 14.008 12.864 15.128C12.864 15.96 12.664 16.744 12.264 17.48C11.864 18.2 11.272 18.808 10.488 19.304C9.704 19.784 8.736 20.072 7.584 20.168V21.632H5.568ZM5.28 7.16C5.28 7.496 5.392 7.808 5.616 8.096C5.856 8.384 6.16 8.64 6.528 8.864V5.504C5.696 5.76 5.28 6.312 5.28 7.16ZM9.24 15.128C9.24 14.728 9.08 14.368 8.76 14.048C8.456 13.712 8.064 13.416 7.584 13.16V17C8.032 16.888 8.416 16.688 8.736 16.4C9.072 16.096 9.24 15.672 9.24 15.128Z" fill="black"/>
</svg>
